<mxfile host="app.diagrams.net" modified="2022-09-22T07:55:03.300Z" agent="5.0 (Windows NT 10.0; Win64; x64) AppleWebKit/537.36 (KHTML, like Gecko) Chrome/105.0.0.0 Safari/537.36" etag="Z0CjIdDMfe0ZdbYRp-qX" version="20.2.8" type="github">
  <diagram id="C5RBs43oDa-KdzZeNtuy" name="Page-1">
    <mxGraphModel dx="782" dy="436" grid="1" gridSize="10" guides="1" tooltips="1" connect="1" arrows="1" fold="1" page="1" pageScale="1" pageWidth="827" pageHeight="1169" math="0" shadow="0">
      <root>
        <mxCell id="WIyWlLk6GJQsqaUBKTNV-0" />
        <mxCell id="WIyWlLk6GJQsqaUBKTNV-1" parent="WIyWlLk6GJQsqaUBKTNV-0" />
        <mxCell id="5zd-PSggPzZJ1kYpNaF--8" value="" style="edgeStyle=orthogonalEdgeStyle;rounded=0;orthogonalLoop=1;jettySize=auto;html=1;fontSize=18;" edge="1" parent="WIyWlLk6GJQsqaUBKTNV-1" source="5zd-PSggPzZJ1kYpNaF--0" target="5zd-PSggPzZJ1kYpNaF--1">
          <mxGeometry relative="1" as="geometry" />
        </mxCell>
        <mxCell id="5zd-PSggPzZJ1kYpNaF--0" value="开始" style="ellipse;whiteSpace=wrap;html=1;aspect=fixed;fontSize=18;" vertex="1" parent="WIyWlLk6GJQsqaUBKTNV-1">
          <mxGeometry x="315" y="110" width="60" height="60" as="geometry" />
        </mxCell>
        <mxCell id="5zd-PSggPzZJ1kYpNaF--9" value="" style="edgeStyle=orthogonalEdgeStyle;rounded=0;orthogonalLoop=1;jettySize=auto;html=1;fontSize=18;" edge="1" parent="WIyWlLk6GJQsqaUBKTNV-1" source="5zd-PSggPzZJ1kYpNaF--1" target="5zd-PSggPzZJ1kYpNaF--4">
          <mxGeometry relative="1" as="geometry" />
        </mxCell>
        <mxCell id="5zd-PSggPzZJ1kYpNaF--1" value="添加项目" style="rounded=1;whiteSpace=wrap;html=1;fontSize=18;" vertex="1" parent="WIyWlLk6GJQsqaUBKTNV-1">
          <mxGeometry x="280" y="200" width="130" height="40" as="geometry" />
        </mxCell>
        <mxCell id="5zd-PSggPzZJ1kYpNaF--10" value="" style="edgeStyle=orthogonalEdgeStyle;rounded=0;orthogonalLoop=1;jettySize=auto;html=1;fontSize=18;" edge="1" parent="WIyWlLk6GJQsqaUBKTNV-1" source="5zd-PSggPzZJ1kYpNaF--4" target="5zd-PSggPzZJ1kYpNaF--5">
          <mxGeometry relative="1" as="geometry" />
        </mxCell>
        <mxCell id="5zd-PSggPzZJ1kYpNaF--4" value="添加接口用例" style="rounded=1;whiteSpace=wrap;html=1;fontSize=18;" vertex="1" parent="WIyWlLk6GJQsqaUBKTNV-1">
          <mxGeometry x="280" y="300" width="130" height="40" as="geometry" />
        </mxCell>
        <mxCell id="5zd-PSggPzZJ1kYpNaF--11" value="" style="edgeStyle=orthogonalEdgeStyle;rounded=0;orthogonalLoop=1;jettySize=auto;html=1;fontSize=18;" edge="1" parent="WIyWlLk6GJQsqaUBKTNV-1" source="5zd-PSggPzZJ1kYpNaF--5" target="5zd-PSggPzZJ1kYpNaF--6">
          <mxGeometry relative="1" as="geometry" />
        </mxCell>
        <mxCell id="5zd-PSggPzZJ1kYpNaF--5" value="添加环境" style="rounded=1;whiteSpace=wrap;html=1;fontSize=18;" vertex="1" parent="WIyWlLk6GJQsqaUBKTNV-1">
          <mxGeometry x="280" y="390" width="130" height="40" as="geometry" />
        </mxCell>
        <mxCell id="5zd-PSggPzZJ1kYpNaF--12" value="" style="edgeStyle=orthogonalEdgeStyle;rounded=0;orthogonalLoop=1;jettySize=auto;html=1;fontSize=18;" edge="1" parent="WIyWlLk6GJQsqaUBKTNV-1" source="5zd-PSggPzZJ1kYpNaF--6" target="5zd-PSggPzZJ1kYpNaF--7">
          <mxGeometry relative="1" as="geometry" />
        </mxCell>
        <mxCell id="5zd-PSggPzZJ1kYpNaF--6" value="自动测试" style="rounded=1;whiteSpace=wrap;html=1;fontSize=18;" vertex="1" parent="WIyWlLk6GJQsqaUBKTNV-1">
          <mxGeometry x="280" y="490" width="130" height="40" as="geometry" />
        </mxCell>
        <mxCell id="5zd-PSggPzZJ1kYpNaF--7" value="结束" style="ellipse;whiteSpace=wrap;html=1;aspect=fixed;fontSize=18;" vertex="1" parent="WIyWlLk6GJQsqaUBKTNV-1">
          <mxGeometry x="315" y="585" width="60" height="60" as="geometry" />
        </mxCell>
      </root>
    </mxGraphModel>
  </diagram>
</mxfile>
